Coordinates
version=1
nRows=13
nColumns=38
inDegrees=no

Units are S.I. units (second, meters, Newtons, ...)
If the header above contains a line with 'inDegrees', this indicates whether rotational values are in degrees (yes) or radians (no).

endheader
time	pelvis_tilt	pelvis_list	pelvis_rotation	pelvis_tx	pelvis_ty	pelvis_tz	hip_flexion_r	hip_adduction_r	hip_rotation_r	knee_angle_r	ankle_angle_r	subtalar_angle_r	mtp_angle_r	hip_flexion_l	hip_adduction_l	hip_rotation_l	knee_angle_l	ankle_angle_l	subtalar_angle_l	mtp_angle_l	lumbar_extension	lumbar_bending	lumbar_rotation	arm_flex_r	arm_add_r	arm_rot_r	elbow_flex_r	pro_sup_r	wrist_flex_r	wrist_dev_r	arm_flex_l	arm_add_l	arm_rot_l	elbow_flex_l	pro_sup_l	wrist_flex_l	wrist_dev_l
0	-3.12909	1.40454	1.4314	0.748714	1.82576	1.03212	0.183188	-0.0996449	-0.0587145	0.948612	-0.53962	0	0	0.324176	-0.0244109	-0.259867	0.308774	-0.0977578	0	0	0.038151	-0.0260335	-0.0450957	0.113198	-0.223576	0.621985	0.382072	1.5708	0	0	-0.151907	-0.290369	0.408241	0.539936	1.07418	0	0
0.01	-3.09639	1.39883	1.39769	0.749169	1.81556	1.03385	0.212189	-0.0824507	-0.0277814	0.971822	-0.491751	0	0	0.317147	-0.0289585	-0.249302	0.305451	-0.0972729	0	0	0.042094	-0.0160962	-0.0421978	0.107896	-0.225052	0.637494	0.369139	1.5708	0	0	-0.136369	-0.293224	0.419573	0.543084	1.07674	0	0
0.02	-3.07579	1.39855	1.38225	0.75022	1.8041	1.03582	0.234035	-0.0830664	-0.034834	0.9919	-0.448047	0	0	0.303603	-0.0292863	-0.246956	0.3011	-0.098175	0	0	0.0364564	-0.0100967	-0.0438902	0.0988267	-0.228868	0.640552	0.365807	1.5708	0	0	-0.123068	-0.297924	0.424354	0.554189	1.08476	0	0
0.03	-3.05566	1.39937	1.36583	0.751041	1.79228	1.03789	0.253376	-0.083566	-0.0414762	1.00587	-0.400474	0	0	0.287662	-0.0303177	-0.251363	0.296081	-0.0998975	0	0	0.0360518	-0.00346649	-0.0550323	0.0946168	-0.228283	0.650922	0.354086	1.5708	0	0	-0.118699	-0.30032	0.418554	0.563184	1.09254	0	0
0.04	-3.03235	1.39988	1.34322	0.751587	1.78042	1.03997	0.272593	-0.0820347	-0.044997	1.01411	-0.36383	0	0	0.270839	-0.0331896	-0.26064	0.290828	-0.101648	0	0	0.0368265	0.00388748	-0.0645243	0.0901757	-0.227865	0.659339	0.342931	1.5708	0	0	-0.115669	-0.302057	0.410405	0.57193	1.1004	0	0
0.05	-3.00205	1.40071	1.31445	0.752167	1.76873	1.04211	0.29022	-0.0790121	-0.0497378	1.01649	-0.334452	0	0	0.25336	-0.0367129	-0.266595	0.285497	-0.103223	0	0	0.036379	0.0122869	-0.0753227	0.0857203	-0.227912	0.663102	0.333814	1.5708	0	0	-0.113007	-0.3042	0.401262	0.582316	1.10771	0	0
0.06	-2.96858	1.40144	1.28446	0.752817	1.75713	1.04423	0.306461	-0.0757894	-0.0575445	1.0133	-0.306789	0	0	0.235847	-0.0398973	-0.267317	0.279312	-0.105229	0	0	0.0353858	0.0208948	-0.0880959	0.0812632	-0.227518	0.662257	0.325281	1.5708	0	0	-0.111107	-0.306683	0.389676	0.594563	1.1157	0	0
0.07	-2.93332	1.4016	1.25231	0.753361	1.74555	1.04626	0.322165	-0.0715593	-0.0650994	1.00523	-0.281394	0	0	0.218309	-0.043501	-0.266406	0.271902	-0.107645	0	0	0.0346815	0.029917	-0.100214	0.0760421	-0.226943	0.654926	0.317777	1.5708	0	0	-0.109587	-0.309073	0.37693	0.607516	1.12478	0	0
0.08	-2.89862	1.40087	1.22007	0.753773	1.73399	1.04816	0.337765	-0.0661447	-0.0706776	0.992855	-0.25644	0	0	0.20125	-0.0479924	-0.269062	0.263664	-0.11089	0	0	0.0346253	0.0390061	-0.111468	0.0693584	-0.226486	0.63719	0.312666	1.5708	0	0	-0.108548	-0.311566	0.363326	0.621432	1.13511	0	0
0.09	-2.86861	1.39891	1.19197	0.754051	1.72257	1.04987	0.354103	-0.0602421	-0.0759544	0.975982	-0.231258	0	0	0.185717	-0.0525755	-0.273473	0.255506	-0.115033	0	0	0.0352274	0.0475762	-0.121218	0.061252	-0.22647	0.614847	0.310458	1.5708	0	0	-0.107456	-0.314121	0.348678	0.636176	1.14617	0	0
0.1	-2.84403	1.39598	1.16883	0.754172	1.71125	1.05139	0.370726	-0.0538753	-0.0808643	0.954502	-0.205954	0	0	0.171415	-0.0568109	-0.278443	0.24747	-0.119267	0	0	0.0365166	0.0554707	-0.129693	0.0524383	-0.226404	0.59009	0.309572	1.5708	0	0	-0.106471	-0.316821	0.333161	0.65179	1.15807	0	0
0.11	-2.82732	1.39193	1.15356	0.754226	1.70013	1.0527	0.388188	-0.0481406	-0.0868179	0.929135	-0.182942	0	0	0.158256	-0.0602658	-0.282882	0.238152	-0.123949	0	0	0.0386952	0.062615	-0.137521	0.0438043	-0.225843	0.563511	0.308785	1.56605	0	0	-0.105389	-0.319599	0.317168	0.668176	1.17126	0	0
0.12	-2.81697	1.38673	1.1442	0.754141	1.68907	1.05375	0.406129	-0.0422824	-0.0923158	0.899537	-0.163521	0	0	0.146644	-0.0631122	-0.286677	0.229054	-0.128745	0	0	0.0423064	0.0692254	-0.144173	0.0350245	-0.224971	0.536918	0.30784	1.55782	0	0	-0.104349	-0.322076	0.300801	0.684812	1.18538	0	0
